<?xml version="1.0" encoding="UTF-8" standalone="no"?>
<!DOCTYPE svg PUBLIC "-//W3C//DTD SVG 1.1//EN" "http://www.w3.org/Graphics/SVG/1.1/DTD/svg11.dtd">
<svg width="100%" height="100%" viewBox="0 0 300 300" version="1.1" xmlns="http://www.w3.org/2000/svg" xmlns:xlink="http://www.w3.org/1999/xlink" xml:space="preserve" xmlns:serif="http://www.serif.com/" style="fill-rule:evenodd;clip-rule:evenodd;stroke-linejoin:round;stroke-miterlimit:2;">
  <g id="logo" transform="matrix(0.19618,0,0,0.128904,455.435,36.7833)">
    <g id="circle" transform="matrix(1.43706,0,0,2.18707,-2384.13,-519.055)">
      <path d="M794.024,741.894C794.043,761.479 777.943,777.61 758.359,777.629C738.774,777.648 722.642,761.549 722.623,741.964C722.603,722.379 738.702,706.247 758.287,706.227C777.872,706.207 794.004,722.306 794.024,741.891" style="fill:#990c00;fill-opacity:0.97;fill-rule:nonzero;"/>
    </g>
    <g id="magpie" transform="matrix(0.285699,0,0,0.434807,-2123.15,58.872)">
      <path d="M2703.6,1186.87C2580.37,1186.92 2461.66,1270.38 2433.65,1405.48C2426.59,1439.55 2406.97,1472.81 2339.37,1490.54C1791.1,1634.27 2134.14,2266.96 669.375,2542.06C904.925,2585.46 1230.78,2651.23 1692.81,2384.48C1706.17,2376.77 1838.04,2319.88 1918.41,2452.38C2570.03,2485.11 2887.14,1931.04 2825.84,1520.8C2806.39,1390.62 2896.58,1376.57 3080.43,1322.47C3080.43,1322.47 3001.75,1241.15 2877.34,1250.17C2825.04,1206.71 2763.78,1186.84 2703.6,1186.87ZM2468.26,1565.26C2488.2,1734.77 2318.52,2069.43 1934.69,2006.15C2062.76,1840.92 2138.2,1580.12 2468.26,1565.26ZM2486.21,1850.73C2511.18,1920.37 2545.3,1983.38 2608.07,2049.28C2212.81,2583.95 1804.36,2108.98 2011.34,2108.98C2168.4,2114.69 2369.67,2045.08 2486.21,1850.73Z" style="fill-rule:nonzero;"/>
    </g>
  </g>
</svg>
