<?xml version="1.0" encoding="UTF-8" standalone="no"?>
<!DOCTYPE svg PUBLIC "-//W3C//DTD SVG 1.1//EN" "http://www.w3.org/Graphics/SVG/1.1/DTD/svg11.dtd">
<svg width="100%" height="100%" viewBox="0 0 17 17" version="1.1" xmlns="http://www.w3.org/2000/svg" xmlns:xlink="http://www.w3.org/1999/xlink" xml:space="preserve" xmlns:serif="http://www.serif.com/" style="fill-rule:evenodd;clip-rule:evenodd;stroke-linejoin:round;stroke-miterlimit:2;">
    <g transform="matrix(1,0,0,1,-1062,0)">
        <g transform="matrix(0.0534459,0,0,0.0534459,1062.5,0.451394)">
            <rect id="sewera-favicon-black" x="0" y="0" width="300" height="300" style="fill-opacity:0;"/>
            <clipPath id="_clip1">
                <rect id="sewera-favicon-black1" serif:id="sewera-favicon-black" x="0" y="0" width="300" height="300"/>
            </clipPath>
            <g clip-path="url(#_clip1)">
                <g id="logo" transform="matrix(3.20663,0,0,3.20663,-393.284,-1531.87)">
                    <path d="M190.447,486.004C183.54,486.007 176.887,490.685 175.317,498.257C174.921,500.166 173.822,502.031 170.033,503.024C139.303,511.08 158.53,546.542 76.432,561.961C89.634,564.393 107.898,568.08 133.794,553.129C134.543,552.696 141.934,549.508 146.439,556.934C182.961,558.769 200.734,527.714 197.299,504.721C196.208,497.424 201.263,496.637 211.568,493.605C211.568,493.605 207.158,489.047 200.185,489.552C197.254,487.116 193.82,486.003 190.447,486.004ZM211.568,554.141C211.573,559.662 207.034,564.21 201.513,564.216C195.992,564.221 191.444,559.682 191.438,554.161C191.433,548.64 195.971,544.092 201.493,544.086C207.014,544.08 211.562,548.619 211.568,554.14L211.568,554.141ZM178.263,523.212C179.662,527.116 181.575,530.647 185.093,534.341C162.94,564.308 140.047,537.687 151.647,537.687C160.45,538.007 171.731,534.105 178.263,523.212ZM177.257,507.212C177.816,511.963 175.718,519.027 170.791,524.461C165.864,529.894 158.108,533.697 147.351,531.923C154.529,522.663 158.757,508.045 177.257,507.212Z" style="fill-opacity:0.97;fill-rule:nonzero;"/>
                </g>
            </g>
        </g>
    </g>
</svg>
