<svg xmlns="http://www.w3.org/2000/svg" xml:space="preserve" fill-rule="evenodd" stroke-linejoin="round" stroke-miterlimit="2" clip-rule="evenodd" viewBox="0 0 300 300"><path fill="#990c00" fill-opacity="1" fill-rule="nonzero" d="M794 741.9c0 19.6-16 35.7-35.6 35.7s-35.8-16-35.8-35.6 16.1-35.8 35.7-35.8S794 722.3 794 742" transform="matrix(.19618 0 0 .1289 455.4 36.8) matrix(1.43706 0 0 2.18707 -2384.1 -519)"/><path fill-rule="nonzero" d="M2703.6 1186.9c-123.2 0-242 83.5-270 218.6-7 34-26.6 67.3-94.2 85C1791 1634.3 2134 2267 669.4 2542.1c235.5 43.4 561.4 109.1 1023.4-157.6 13.4-7.7 145.2-64.6 225.6 67.9 651.6 32.7 968.7-521.4 907.4-931.6-19.4-130.2 70.8-144.2 254.6-198.3 0 0-78.7-81.3-203-72.3a269.6 269.6 0 0 0-173.8-63.3Zm-235.3 378.4c19.9 169.5-149.8 504.1-533.6 440.9 128-165.3 203.5-426 533.6-441Zm18 285.4c24.9 69.7 59 132.7 121.8 198.6-395.3 534.6-803.7 59.7-596.8 59.7 157.1 5.7 358.4-64 475-258.3Z" transform="matrix(.19618 0 0 .1289 455.4 36.8) matrix(.2857 0 0 .4348 -2123.2 58.9)"/></svg>